<?xml version="1.0" encoding="utf-8"?>
<!-- Generator: Adobe Illustrator 16.0.0, SVG Export Plug-In . SVG Version: 6.00 Build 0)  -->
<!DOCTYPE svg PUBLIC "-//W3C//DTD SVG 1.1//EN" "http://www.w3.org/Graphics/SVG/1.1/DTD/svg11.dtd">
<svg version="1.1" id="Layer_1" xmlns="http://www.w3.org/2000/svg" xmlns:xlink="http://www.w3.org/1999/xlink" x="0px" y="0px"
	 width="343px" height="475px" viewBox="0 0 343 475" style="enable-background:new 0 0 343 475;" xml:space="preserve">
<g>
	<path d="M14.987,336.819c-1.255-1.252-1.881-2.682-1.881-4.282V213.065c0-1.823,0.626-3.366,1.881-4.621
		c1.252-1.254,2.68-1.883,4.282-1.883h75.652c8.673,0,16.143-3.08,22.423-9.245c6.274-6.159,9.416-13.575,9.416-22.25
		c0-8.9-3.142-16.434-9.416-22.596c-6.28-6.161-13.75-9.243-22.423-9.243H19.269c-1.602,0-3.03-0.623-4.282-1.881
		c-1.255-1.25-1.881-2.791-1.881-4.621v-31.496c0-1.821,0.626-3.365,1.881-4.621c1.252-1.252,2.68-1.883,4.282-1.883h75.652
		c13.694,0,26.36,3.423,38.004,10.269c11.635,6.846,20.876,16.151,27.726,27.904c6.849,11.755,10.27,24.478,10.27,38.169
		c0,13.693-3.421,26.36-10.27,37.998c-6.85,11.637-16.091,20.882-27.726,27.728c-11.644,6.846-24.31,10.273-38.004,10.273H58.634
		c-2.512,0-4.223,0.339-5.133,1.025c-0.916,0.686-1.371,2.054-1.371,4.107v76.339c0,1.834-0.631,3.313-1.881,4.45
		c-1.259,1.146-2.802,1.712-4.624,1.712H19.269C17.667,338.699,16.239,338.075,14.987,336.819z"/>
	<path d="M325.756,165.042c-5.705-8.753-13.26-15.598-22.641-20.546c-9.388-4.946-23.21-10.715-41.479-17.312
		c-7.358-2.536-16.302-6.213-26.827-11.036c-10.528-4.818-17.566-8.373-21.115-10.657c-8.884-5.578-13.318-12.175-13.318-19.785
		c0-4.817,1.961-9.574,5.895-14.271c3.935-4.688,9.325-8.686,16.175-11.982c9.133-3.552,18.893-5.33,29.3-5.33
		c8.878,0,17.753,1.271,26.641,3.805c7.61,2.032,16.606,5.963,27.013,11.796c1.269,0.76,2.533,1.142,3.804,1.142
		c1.526,0,2.666-0.382,3.428-1.142l4.564-6.468c7.353-10.4,11.666-16.992,12.939-19.788c0.249-0.505,0-1.391-0.764-2.662
		c-0.759-1.268-1.774-2.412-3.039-3.426c-6.855-5.833-14.214-10.78-22.072-14.841c-8.63-4.052-18.779-7.096-30.444-9.131
		c-11.668-2.026-23.589-2.789-35.767-2.283c-16.743,1.778-31.585,6.409-44.524,13.886c-12.936,7.488-23.02,16.813-30.251,27.969
		c-7.228,11.17-10.842,22.966-10.842,35.39c0,11.925,3.549,23.467,10.655,34.629c5.827,8.37,14.773,15.408,26.824,21.117
		c12.047,5.707,27.712,11.863,46.994,18.457c12.682,4.062,22.703,7.744,30.062,11.035c7.355,3.3,12.43,6.725,15.22,10.273
		c4.311,6.091,6.471,12.309,6.471,18.648c0,8.626-3.997,15.854-11.986,21.687c-7.992,5.839-18.33,8.75-31.012,8.75l-15.982-0.377
		c-4.319,0-6.728,2.034-7.23,6.089c-0.51,2.284-0.893,4.754-1.141,7.419c-0.258,2.665-0.513,5.012-0.762,7.037l-1.522,11.04
		c-0.51,2.281-0.255,3.994,0.762,5.135c1.01,1.144,2.79,1.843,5.329,2.095c6.084,1.017,11.283,1.522,15.6,1.522
		c18.514,0,34.878-3.104,49.085-9.325c14.204-6.214,25.174-14.774,32.918-25.687c7.731-10.904,11.603-23.458,11.603-37.67
		C334.316,185.534,331.464,173.796,325.756,165.042z"/>
	<path d="M81.862,287.805c1.254-1.256,2.682-1.883,4.284-1.883H313.45c1.824,0,3.365,0.627,4.624,1.883
		c1.249,1.253,1.88,2.682,1.88,4.278v36.973c0,1.594-0.631,3.021-1.88,4.28c-1.259,1.253-2.8,1.88-4.624,1.88h-78.737l81.479,69.492
		c2.508,2.055,3.763,4.565,3.763,7.533v48.955c0,2.507-0.46,3.989-1.367,4.449c-0.917,0.454-1.83,0.342-2.741-0.345l-145.83-124.606
		c-4.341-3.654-9.816-5.479-16.432-5.479H86.146c-1.602,0-3.03-0.571-4.284-1.712c-1.253-1.144-1.88-2.626-1.88-4.448v-36.973
		C79.982,290.486,80.609,289.058,81.862,287.805z M81.862,413.099c1.029-2.172,2.568-3.94,4.621-5.308l51.693-36.286
		c2.508-1.604,4.564-2.396,6.165-2.396c2.055,0,4.217,0.907,6.504,2.737c2.055,1.824,4.5,3.935,7.358,6.333
		c2.853,2.396,5.528,4.733,8.046,7.017l8.558,7.188c1.824,1.374,2.737,2.965,2.737,4.795c0,2.055-1.025,3.767-3.079,5.134
		l-87.295,61.621c-0.915,0.454-1.711,0.687-2.398,0.687c-2.967,0-4.566-2.057-4.79-6.165V423.54
		C80.206,418.748,80.837,415.265,81.862,413.099z"/>
</g>
</svg>
